<svg width="15" height="13" viewBox="0 0 15 13" fill="none" xmlns="http://www.w3.org/2000/svg">
<path d="M6.49349 11C6.34028 11.0001 6.18903 10.9657 6.05095 10.8994C5.91287 10.8331 5.7915 10.7366 5.69586 10.617L3.21215 7.62452C3.04892 7.41606 2.97526 7.15134 3.00737 6.88861C3.03947 6.62588 3.17472 6.38665 3.38335 6.22356C3.59198 6.06047 3.85691 5.98686 4.11985 6.01895C4.38279 6.05103 4.62221 6.18616 4.78543 6.39463L6.49349 8.38261L11.1974 2.4067C11.2765 2.2992 11.3763 2.20865 11.491 2.1404C11.6058 2.07215 11.733 2.02759 11.8653 2.00936C11.9975 1.99113 12.1321 1.99959 12.2611 2.03425C12.39 2.06891 12.5107 2.12906 12.6159 2.21114C12.7212 2.29322 12.8089 2.39557 12.8738 2.51212C12.9388 2.62867 12.9797 2.75706 12.9942 2.88969C13.0086 3.02232 12.9962 3.1565 12.9578 3.28428C12.9195 3.41205 12.8558 3.53084 12.7707 3.6336L7.27015 10.616C7.17901 10.7354 7.06151 10.8322 6.92679 10.8988C6.79208 10.9654 6.64379 11 6.49349 11Z" fill="#35B13D"/>
</svg>
