<svg width="11" height="10" viewBox="0 0 11 10" fill="none" xmlns="http://www.w3.org/2000/svg">
<path d="M5.22945 0.159867L0.0394514 9.53402C0.013062 9.58166 -0.000532384 9.63544 1.59549e-05 9.69001C0.000564294 9.74459 0.0152363 9.79808 0.0425775 9.84517C0.0699186 9.89227 0.108979 9.93133 0.155887 9.95848C0.202795 9.98564 0.25592 9.99995 0.309997 10H10.69C10.7441 9.99995 10.7972 9.98564 10.8441 9.95848C10.891 9.93133 10.9301 9.89227 10.9574 9.84517C10.9848 9.79808 10.9994 9.74459 11 9.69001C11.0005 9.63544 10.9869 9.58166 10.9605 9.53402L5.77055 0.159867C5.74357 0.111373 5.7043 0.0710025 5.65675 0.0429059C5.6092 0.0148094 5.5551 0 5.5 0C5.4449 0 5.3908 0.0148094 5.34325 0.0429059C5.2957 0.0710025 5.25642 0.111373 5.22945 0.159867ZM6.12052 8.59078C6.12052 8.63231 6.10417 8.67213 6.07508 8.7015C6.04599 8.73086 6.00653 8.74736 5.96539 8.74736H5.03461C4.99347 8.74736 4.95401 8.73086 4.92492 8.7015C4.89583 8.67213 4.87948 8.63231 4.87948 8.59078V7.6513C4.87948 7.60977 4.89583 7.56994 4.92492 7.54058C4.95401 7.51121 4.99347 7.49472 5.03461 7.49472H5.96539C6.00653 7.49472 6.04599 7.51121 6.07508 7.54058C6.10417 7.56994 6.12052 7.60977 6.12052 7.6513V8.59078ZM6.12052 6.71181C6.12052 6.75334 6.10417 6.79317 6.07508 6.82253C6.04599 6.8519 6.00653 6.86839 5.96539 6.86839H5.03461C4.99347 6.86839 4.95401 6.8519 4.92492 6.82253C4.89583 6.79317 4.87948 6.75334 4.87948 6.71181V2.95389C4.87948 2.91236 4.89583 2.87253 4.92492 2.84317C4.95401 2.8138 4.99347 2.79731 5.03461 2.79731H5.96539C6.00653 2.79731 6.04599 2.8138 6.07508 2.84317C6.10417 2.87253 6.12052 2.91236 6.12052 2.95389V6.71181Z" fill="#E04343"/>
</svg>
