<svg width="42" height="42" viewBox="0 0 42 42" fill="none" xmlns="http://www.w3.org/2000/svg">
<path d="M5.25 7.875H35.7451" stroke="white" stroke-width="4" stroke-linecap="round"/>
<path d="M5.25 7.875V20.073" stroke="white" stroke-width="4" stroke-linecap="round"/>
<path d="M35.7451 7.875V38.3701" stroke="white" stroke-width="4" stroke-linecap="round"/>
<path d="M35.745 38.3701H25.58" stroke="white" stroke-width="4" stroke-linecap="round"/>
<path d="M14.4714 29.4002L16.546 16.9043H21.476C22.4197 16.9043 23.1966 17.0711 23.8067 17.4046C24.421 17.7382 24.8521 18.2121 25.1003 18.8263C25.3525 19.4364 25.4114 20.1564 25.2772 20.9862C25.1389 21.816 24.8399 22.5279 24.3803 23.1217C23.9247 23.7156 23.3308 24.1732 22.5987 24.4946C21.8705 24.8119 21.0265 24.9705 20.0665 24.9705H16.7656L17.1317 22.8472H19.9994C20.5038 22.8472 20.935 22.778 21.2929 22.6397C21.6509 22.5014 21.9336 22.294 22.141 22.0174C22.3525 21.7407 22.4908 21.397 22.5559 20.9862C22.6251 20.5672 22.6007 20.2174 22.4827 19.9367C22.3648 19.652 22.1512 19.4364 21.8421 19.29C21.5329 19.1395 21.1261 19.0642 20.6218 19.0642H18.8401L17.1134 29.4002H14.4714ZM22.1593 23.7136L24.3254 29.4002H21.4088L19.3099 23.7136H22.1593Z" fill="white"/>
<mask id="mask0_39_147" style="mask-type:luminance" maskUnits="userSpaceOnUse" x="14" y="16" width="12" height="14">
<path d="M14.4714 29.4002L16.546 16.9043H21.476C22.4197 16.9043 23.1966 17.0711 23.8067 17.4046C24.421 17.7382 24.8521 18.2121 25.1003 18.8263C25.3525 19.4364 25.4114 20.1564 25.2772 20.9862C25.1389 21.816 24.8399 22.5279 24.3803 23.1217C23.9247 23.7156 23.3308 24.1732 22.5987 24.4946C21.8705 24.8119 21.0265 24.9705 20.0665 24.9705H16.7656L17.1317 22.8472H19.9994C20.5038 22.8472 20.935 22.778 21.2929 22.6397C21.6509 22.5014 21.9336 22.294 22.141 22.0174C22.3525 21.7407 22.4908 21.397 22.5559 20.9862C22.6251 20.5672 22.6007 20.2174 22.4827 19.9367C22.3648 19.652 22.1512 19.4364 21.8421 19.29C21.5329 19.1395 21.1261 19.0642 20.6218 19.0642H18.8401L17.1134 29.4002H14.4714ZM22.1593 23.7136L24.3254 29.4002H21.4088L19.3099 23.7136H22.1593Z" fill="white"/>
</mask>
<g mask="url(#mask0_39_147)">
<path d="M14.4714 29.4002L14.0948 29.3376L14.021 29.782H14.4714V29.4002ZM16.546 16.9043V16.5225H16.2223L16.1693 16.8418L16.546 16.9043ZM23.8067 17.4046L23.6236 17.7396L23.6245 17.7402L23.8067 17.4046ZM25.1003 18.8263L24.7462 18.9693L24.7474 18.9721L25.1003 18.8263ZM25.2772 20.9862L25.6538 21.049L25.6541 21.0472L25.2772 20.9862ZM24.3803 23.1217L24.0783 22.888L24.0773 22.8893L24.3803 23.1217ZM22.5987 24.4946L22.7512 24.8446L22.7521 24.8442L22.5987 24.4946ZM16.7656 24.9705L16.3893 24.9056L16.3123 25.3523H16.7656V24.9705ZM17.1317 22.8472V22.4653H16.8101L16.7554 22.7823L17.1317 22.8472ZM22.141 22.0174L21.8377 21.7854L21.8356 21.7883L22.141 22.0174ZM22.5559 20.9862L22.1792 20.924L22.1788 20.9265L22.5559 20.9862ZM22.4827 19.9367L22.13 20.0829L22.1307 20.0847L22.4827 19.9367ZM21.842 19.29L21.6749 19.6333L21.6786 19.635L21.842 19.29ZM18.8401 19.0642V18.6824H18.5168L18.4635 19.0013L18.8401 19.0642ZM17.1134 29.4002V29.782H17.4367L17.49 29.4631L17.1134 29.4002ZM22.1593 23.7135L22.5161 23.5777L22.4225 23.3317H22.1593V23.7135ZM24.3254 29.4002V29.782H24.8794L24.6822 29.2642L24.3254 29.4002ZM21.4088 29.4002L21.0507 29.5324L21.1428 29.782H21.4088V29.4002ZM19.3099 23.7135V23.3317H18.762L18.9517 23.8458L19.3099 23.7135ZM14.4714 29.4002L14.8481 29.4627L16.9226 16.9668L16.546 16.9043L16.1693 16.8418L14.0948 29.3376L14.4714 29.4002ZM16.546 16.9043V17.2861H21.476V16.9043V16.5225H16.546V16.9043ZM21.476 16.9043V17.2861C22.3775 17.2861 23.0861 17.4458 23.6236 17.7396L23.8067 17.4046L23.9899 17.0696C23.3071 16.6963 22.4618 16.5225 21.476 16.5225V16.9043ZM23.8067 17.4046L23.6245 17.7402C24.1655 18.0339 24.5332 18.442 24.7462 18.9693L25.1003 18.8263L25.4543 18.6832C25.171 17.9821 24.6764 17.4424 23.9889 17.0691L23.8067 17.4046ZM25.1003 18.8263L24.7474 18.9721C24.9661 19.5012 25.0263 20.1464 24.9003 20.9252L25.2772 20.9862L25.6541 21.0472C25.7966 20.1664 25.7388 19.3716 25.4531 18.6804L25.1003 18.8263ZM25.2772 20.9862L24.9006 20.9234C24.7714 21.6985 24.4949 22.3498 24.0783 22.888L24.3803 23.1217L24.6822 23.3554C25.185 22.7059 25.5064 21.9334 25.6538 21.049L25.2772 20.9862ZM24.3803 23.1217L24.0773 22.8893C23.6636 23.4287 23.1226 23.8476 22.4452 24.1449L22.5987 24.4946L22.7521 24.8442C23.539 24.4988 24.1858 24.0025 24.6832 23.3541L24.3803 23.1217ZM22.5987 24.4946L22.4461 24.1445C21.7751 24.4369 20.9847 24.5886 20.0665 24.5886V24.9705V25.3523C21.0683 25.3523 21.966 25.1867 22.7512 24.8446L22.5987 24.4946ZM20.0665 24.9705V24.5886H16.7656V24.9705V25.3523H20.0665V24.9705ZM16.7656 24.9705L17.1419 25.0353L17.508 22.912L17.1317 22.8472L16.7554 22.7823L16.3893 24.9056L16.7656 24.9705ZM17.1317 22.8472V23.229H19.9994V22.8472V22.4653H17.1317V22.8472ZM19.9994 22.8472V23.229C20.5368 23.229 21.0173 23.1555 21.4305 22.9958L21.2929 22.6397L21.1553 22.2835C20.8526 22.4005 20.4707 22.4653 19.9994 22.4653V22.8472ZM21.2929 22.6397L21.4305 22.9958C21.8477 22.8347 22.1915 22.5865 22.4465 22.2464L22.141 22.0174L21.8356 21.7883C21.6757 22.0014 21.4541 22.1681 21.1553 22.2835L21.2929 22.6397ZM22.141 22.0174L22.4443 22.2493C22.7012 21.9134 22.86 21.5072 22.9331 21.0459L22.5559 20.9862L22.1788 20.9265C22.1217 21.2868 22.0039 21.5681 21.8377 21.7854L22.141 22.0174ZM22.5559 20.9862L22.9326 21.0484C23.0091 20.5853 22.9895 20.1571 22.8347 19.7888L22.4827 19.9367L22.1307 20.0847C22.2119 20.2778 22.2411 20.5492 22.1792 20.924L22.5559 20.9862ZM22.4827 19.9367L22.8355 19.7906C22.6772 19.4085 22.3901 19.1271 22.0055 18.9449L21.842 19.29L21.6786 19.635C21.9123 19.7457 22.0523 19.8955 22.13 20.0829L22.4827 19.9367ZM21.842 19.29L22.0092 18.9467C21.6294 18.7618 21.1591 18.6824 20.6218 18.6824V19.0642V19.446C21.0931 19.446 21.4364 19.5171 21.6749 19.6333L21.842 19.29ZM20.6218 19.0642V18.6824H18.8401V19.0642V19.446H20.6218V19.0642ZM18.8401 19.0642L18.4635 19.0013L16.7368 29.3372L17.1134 29.4002L17.49 29.4631L19.2167 19.1271L18.8401 19.0642ZM17.1134 29.4002V29.0183H14.4714V29.4002V29.782H17.1134V29.4002ZM22.1593 23.7135L21.8025 23.8495L23.9685 29.5361L24.3254 29.4002L24.6822 29.2642L22.5161 23.5777L22.1593 23.7135ZM24.3254 29.4002V29.0183H21.4088V29.4002V29.782H24.3254V29.4002ZM21.4088 29.4002L21.7671 29.2679L19.6681 23.5814L19.3099 23.7135L18.9517 23.8458L21.0507 29.5324L21.4088 29.4002ZM19.3099 23.7135V24.0954H22.1593V23.7135V23.3317H19.3099V23.7135Z" fill="white"/>
</g>
</svg>
