<svg width="126" height="42" viewBox="0 0 126 42" fill="none" xmlns="http://www.w3.org/2000/svg">
<path d="M4 2H34.4951" stroke="white" stroke-width="4" stroke-linecap="round"/>
<path d="M4 2V14.198" stroke="white" stroke-width="4" stroke-linecap="round"/>
<path d="M34.4951 2V32.4951" stroke="white" stroke-width="4" stroke-linecap="round"/>
<path d="M34.4951 32.4951H24.3301" stroke="white" stroke-width="4" stroke-linecap="round"/>
<path d="M13.2214 23.5252L15.296 11.0293H20.226C21.1697 11.0293 21.9466 11.1961 22.5567 11.5296C23.171 11.8632 23.6021 12.3371 23.8503 12.9513C24.1025 13.5614 24.1614 14.2814 24.0272 15.1112C23.8889 15.941 23.5899 16.6529 23.1303 17.2467C22.6747 17.8406 22.0808 18.2982 21.3487 18.6196C20.6205 18.9369 19.7765 19.0955 18.8165 19.0955H15.5156L15.8817 16.9722H18.7494C19.2538 16.9722 19.685 16.903 20.0429 16.7647C20.4009 16.6264 20.6836 16.419 20.891 16.1424C21.1025 15.8657 21.2408 15.522 21.3059 15.1112C21.3751 14.6922 21.3507 14.3424 21.2327 14.0617C21.1148 13.777 20.9012 13.5614 20.5921 13.415C20.2829 13.2645 19.8761 13.1892 19.3718 13.1892H17.5901L15.8634 23.5252H13.2214ZM20.9093 17.8386L23.0754 23.5252H20.1588L18.0599 17.8386H20.9093Z" fill="white"/>
<mask id="mask0_153_117" style="mask-type:luminance" maskUnits="userSpaceOnUse" x="13" y="11" width="12" height="13">
<path d="M13.2214 23.5252L15.296 11.0293H20.226C21.1697 11.0293 21.9466 11.1961 22.5567 11.5296C23.171 11.8632 23.6021 12.3371 23.8503 12.9513C24.1025 13.5614 24.1614 14.2814 24.0272 15.1112C23.8889 15.941 23.5899 16.6529 23.1303 17.2467C22.6747 17.8406 22.0808 18.2982 21.3487 18.6196C20.6205 18.9369 19.7765 19.0955 18.8165 19.0955H15.5156L15.8817 16.9722H18.7494C19.2538 16.9722 19.685 16.903 20.0429 16.7647C20.4009 16.6264 20.6836 16.419 20.891 16.1424C21.1025 15.8657 21.2408 15.522 21.3059 15.1112C21.3751 14.6922 21.3507 14.3424 21.2327 14.0617C21.1148 13.777 20.9012 13.5614 20.5921 13.415C20.2829 13.2645 19.8761 13.1892 19.3718 13.1892H17.5901L15.8634 23.5252H13.2214ZM20.9093 17.8386L23.0754 23.5252H20.1588L18.0599 17.8386H20.9093Z" fill="white"/>
</mask>
<g mask="url(#mask0_153_117)">
<path d="M13.2214 23.5252L12.8448 23.4626L12.771 23.907H13.2214V23.5252ZM15.296 11.0293V10.6475H14.9723L14.9193 10.9668L15.296 11.0293ZM22.5567 11.5296L22.3736 11.8646L22.3745 11.8652L22.5567 11.5296ZM23.8503 12.9513L23.4962 13.0943L23.4974 13.0971L23.8503 12.9513ZM24.0272 15.1112L24.4038 15.174L24.4041 15.1722L24.0272 15.1112ZM23.1303 17.2467L22.8283 17.013L22.8273 17.0143L23.1303 17.2467ZM21.3487 18.6196L21.5012 18.9696L21.5021 18.9692L21.3487 18.6196ZM15.5156 19.0955L15.1393 19.0306L15.0623 19.4773H15.5156V19.0955ZM15.8817 16.9722V16.5903H15.5601L15.5054 16.9073L15.8817 16.9722ZM20.891 16.1424L20.5877 15.9104L20.5856 15.9133L20.891 16.1424ZM21.3059 15.1112L20.9292 15.049L20.9288 15.0515L21.3059 15.1112ZM21.2327 14.0617L20.88 14.2079L20.8807 14.2097L21.2327 14.0617ZM20.592 13.415L20.4249 13.7583L20.4286 13.76L20.592 13.415ZM17.5901 13.1892V12.8074H17.2668L17.2135 13.1263L17.5901 13.1892ZM15.8634 23.5252V23.907H16.1867L16.24 23.5881L15.8634 23.5252ZM20.9093 17.8385L21.2661 17.7027L21.1725 17.4567H20.9093V17.8385ZM23.0754 23.5252V23.907H23.6294L23.4322 23.3892L23.0754 23.5252ZM20.1588 23.5252L19.8007 23.6574L19.8928 23.907H20.1588V23.5252ZM18.0599 17.8385V17.4567H17.512L17.7017 17.9708L18.0599 17.8385ZM13.2214 23.5252L13.5981 23.5877L15.6726 11.0918L15.296 11.0293L14.9193 10.9668L12.8448 23.4626L13.2214 23.5252ZM15.296 11.0293V11.4111H20.226V11.0293V10.6475H15.296V11.0293ZM20.226 11.0293V11.4111C21.1275 11.4111 21.8361 11.5708 22.3736 11.8646L22.5567 11.5296L22.7399 11.1946C22.0571 10.8213 21.2118 10.6475 20.226 10.6475V11.0293ZM22.5567 11.5296L22.3745 11.8652C22.9155 12.1589 23.2832 12.567 23.4962 13.0943L23.8503 12.9513L24.2043 12.8082C23.921 12.1071 23.4264 11.5674 22.7389 11.1941L22.5567 11.5296ZM23.8503 12.9513L23.4974 13.0971C23.7161 13.6262 23.7763 14.2714 23.6503 15.0502L24.0272 15.1112L24.4041 15.1722C24.5466 14.2914 24.4888 13.4966 24.2031 12.8054L23.8503 12.9513ZM24.0272 15.1112L23.6506 15.0484C23.5214 15.8235 23.2449 16.4748 22.8283 17.013L23.1303 17.2467L23.4322 17.4804C23.935 16.8309 24.2564 16.0584 24.4038 15.174L24.0272 15.1112ZM23.1303 17.2467L22.8273 17.0143C22.4136 17.5537 21.8726 17.9726 21.1952 18.2699L21.3487 18.6196L21.5021 18.9692C22.289 18.6238 22.9358 18.1275 23.4332 17.4791L23.1303 17.2467ZM21.3487 18.6196L21.1961 18.2695C20.5251 18.5619 19.7347 18.7136 18.8165 18.7136V19.0955V19.4773C19.8183 19.4773 20.716 19.3117 21.5012 18.9696L21.3487 18.6196ZM18.8165 19.0955V18.7136H15.5156V19.0955V19.4773H18.8165V19.0955ZM15.5156 19.0955L15.8919 19.1603L16.258 17.037L15.8817 16.9722L15.5054 16.9073L15.1393 19.0306L15.5156 19.0955ZM15.8817 16.9722V17.354H18.7494V16.9722V16.5903H15.8817V16.9722ZM18.7494 16.9722V17.354C19.2868 17.354 19.7673 17.2805 20.1805 17.1208L20.0429 16.7647L19.9053 16.4085C19.6026 16.5255 19.2207 16.5903 18.7494 16.5903V16.9722ZM20.0429 16.7647L20.1805 17.1208C20.5977 16.9597 20.9415 16.7115 21.1965 16.3714L20.891 16.1424L20.5856 15.9133C20.4257 16.1264 20.2041 16.2931 19.9053 16.4085L20.0429 16.7647ZM20.891 16.1424L21.1943 16.3743C21.4512 16.0384 21.61 15.6322 21.6831 15.1709L21.3059 15.1112L20.9288 15.0515C20.8717 15.4118 20.7539 15.6931 20.5877 15.9104L20.891 16.1424ZM21.3059 15.1112L21.6826 15.1734C21.7591 14.7103 21.7395 14.2821 21.5847 13.9138L21.2327 14.0617L20.8807 14.2097C20.9619 14.4028 20.9911 14.6742 20.9292 15.049L21.3059 15.1112ZM21.2327 14.0617L21.5855 13.9156C21.4272 13.5335 21.1401 13.2521 20.7555 13.0699L20.592 13.415L20.4286 13.76C20.6623 13.8707 20.8023 14.0205 20.88 14.2079L21.2327 14.0617ZM20.592 13.415L20.7592 13.0717C20.3794 12.8868 19.9091 12.8074 19.3718 12.8074V13.1892V13.571C19.8431 13.571 20.1864 13.6421 20.4249 13.7583L20.592 13.415ZM19.3718 13.1892V12.8074H17.5901V13.1892V13.571H19.3718V13.1892ZM17.5901 13.1892L17.2135 13.1263L15.4868 23.4622L15.8634 23.5252L16.24 23.5881L17.9667 13.2521L17.5901 13.1892ZM15.8634 23.5252V23.1433H13.2214V23.5252V23.907H15.8634V23.5252ZM20.9093 17.8385L20.5525 17.9745L22.7185 23.6611L23.0754 23.5252L23.4322 23.3892L21.2661 17.7027L20.9093 17.8385ZM23.0754 23.5252V23.1433H20.1588V23.5252V23.907H23.0754V23.5252ZM20.1588 23.5252L20.5171 23.3929L18.4181 17.7064L18.0599 17.8385L17.7017 17.9708L19.8007 23.6574L20.1588 23.5252ZM18.0599 17.8385V18.2204H20.9093V17.8385V17.4567H18.0599V17.8385Z" fill="white"/>
</g>
<path d="M67.9395 8.91406V30.125H65.4199L53.9355 13.6016H53.7305V30.125H51.0938V8.91406H53.6426L65.127 25.4668H65.332V8.91406H67.9395ZM75.6348 30.3398C72.998 30.3398 71.123 28.2109 71.123 24.8516C71.123 21.4922 72.998 19.3828 75.6543 19.3828C77.7051 19.3828 78.3691 20.6328 78.7207 21.1992H78.8379V15.9844H80.5371V30.125H78.8965V28.5039H78.7207C78.3496 29.0898 77.666 30.3398 75.6348 30.3398ZM75.8691 28.8359C77.8027 28.8359 78.8965 27.1953 78.8965 24.8125C78.8965 22.4688 77.8418 20.8867 75.8691 20.8867C73.8379 20.8867 72.8223 22.6055 72.8223 24.8125C72.8223 27.0781 73.8574 28.8359 75.8691 28.8359ZM85.127 23.7578V30.125H83.4473V15.9844H85.127V21.1797H85.2637C85.752 20.0859 86.709 19.3828 88.3887 19.3828C90.5566 19.3828 92.002 20.6719 92.002 23.3867V30.125H90.3223V23.5039C90.3223 21.8438 89.4043 20.8867 87.8809 20.8867C86.2988 20.8867 85.127 21.9219 85.127 23.7578ZM99.1504 30.3398C96.084 30.3398 94.1895 28.1719 94.1895 24.9102C94.1895 21.6484 96.1035 19.3828 98.9941 19.3828C101.221 19.3828 103.564 20.75 103.564 24.6758V25.3789H95.8691C95.9473 27.625 97.2559 28.8555 99.1504 28.8555C100.42 28.8555 101.221 28.3086 101.611 27.6445H103.408C102.9 29.2461 101.338 30.3398 99.1504 30.3398ZM95.8887 23.9531H101.865C101.865 22.1758 100.732 20.8672 98.9941 20.8672C97.1582 20.8672 95.9863 22.3125 95.8887 23.9531ZM105.752 30.125V19.5195H107.432V30.125H105.752ZM106.592 17.7617C105.947 17.7617 105.42 17.2734 105.42 16.6484C105.42 16.0234 105.947 15.5352 106.592 15.5352C107.236 15.5352 107.783 16.0234 107.783 16.6484C107.783 17.2734 107.236 17.7617 106.592 17.7617ZM110.107 30.125V19.5195H111.729V21.1797H111.865C112.314 20.0469 113.33 19.3828 114.717 19.3828C116.104 19.3828 117.041 20.0469 117.549 21.1797H117.666C118.213 20.0859 119.326 19.3828 120.85 19.3828C122.744 19.3828 124.092 20.5352 124.092 23.0352V30.125H122.412V23.0547C122.412 21.4922 121.416 20.8867 120.264 20.8867C118.779 20.8867 117.939 21.8828 117.939 23.2305V30.125H116.24V22.8789C116.24 21.6875 115.381 20.8867 114.17 20.8867C112.9 20.8867 111.787 21.9609 111.787 23.5039V30.125H110.107Z" fill="white"/>
</svg>
