<svg width="14" height="14" viewBox="0 0 14 14" fill="none" xmlns="http://www.w3.org/2000/svg">
<g clip-path="url(#clip0_31_60)">
<path fill-rule="evenodd" clip-rule="evenodd" d="M5.66726 3.67114C6.31895 3.40918 7.03325 3.3445 7.7214 3.48513C8.40954 3.62577 9.04119 3.96553 9.53784 4.46218C10.0345 4.95883 10.3742 5.59047 10.5149 6.27862C10.6555 6.96676 10.5908 7.68107 10.3289 8.33275L11.4741 9.47803C12.4833 8.62675 13.125 7.68448 13.125 7.14003C13.125 6.2207 11.4862 4.2852 9.5717 3.3367C8.77497 2.92888 7.89494 2.71024 6.99998 2.69775C6.33666 2.70354 5.67967 2.82745 5.05981 3.0637L5.66726 3.67114Z" fill="#6E6E6E"/>
<path fill-rule="evenodd" clip-rule="evenodd" d="M13.1421 12.4668L8.68309 8.0078C8.86827 7.70407 8.96697 7.35553 8.96854 6.9998C8.96618 6.84198 8.94343 6.68513 8.90087 6.53314C8.81137 6.68288 8.68498 6.80718 8.53377 6.89419C8.38257 6.98119 8.21159 7.028 8.03715 7.03014C7.76248 7.03014 7.49902 6.92119 7.30458 6.72718C7.11015 6.53318 7.0006 6.26997 6.99998 5.9953C7.00195 5.81495 7.05155 5.63832 7.14374 5.4833C7.23593 5.32828 7.36745 5.20037 7.52498 5.11253C7.35459 5.06128 7.1779 5.03392 6.99998 5.03125C6.64426 5.03282 6.29572 5.13152 5.99198 5.31669L1.53298 0.857694C1.47327 0.798111 1.39236 0.764648 1.30801 0.764648C1.22366 0.764648 1.14275 0.798111 1.08304 0.857694L0.85826 1.08286C0.828665 1.11238 0.805183 1.14744 0.789161 1.18604C0.77314 1.22465 0.764893 1.26604 0.764893 1.30783C0.764893 1.34963 0.77314 1.39102 0.789161 1.42962C0.805183 1.46823 0.828665 1.50329 0.85826 1.5328L3.32615 4.00069C1.84215 5.06625 0.876149 6.49658 0.876149 7.13981C0.876149 8.30647 3.77648 11.3009 6.97626 11.3009C7.98753 11.2807 8.97962 11.0211 9.87115 10.5434L12.4685 13.1407C12.4981 13.1703 12.5331 13.1938 12.5717 13.2098C12.6103 13.2259 12.6517 13.2341 12.6935 13.2341C12.7353 13.2341 12.7767 13.2259 12.8153 13.2098C12.8539 13.1938 12.889 13.1703 12.9185 13.1407L13.1433 12.916C13.2025 12.8562 13.2357 12.7753 13.2355 12.6911C13.2353 12.607 13.2017 12.5263 13.1421 12.4668ZM6.99998 10.5873C6.33077 10.5895 5.67437 10.404 5.10533 10.0518C4.53629 9.69957 4.07744 9.19485 3.7809 8.59492C3.48436 7.995 3.36202 7.32393 3.42779 6.65796C3.49355 5.99199 3.74478 5.35781 4.15293 4.82747L5.31726 5.9918C5.13169 6.29539 5.03284 6.644 5.03143 6.9998C5.03138 7.25835 5.08226 7.51438 5.18116 7.75326C5.28007 7.99214 5.42506 8.2092 5.60787 8.39204C5.79067 8.57487 6.0077 8.71991 6.24656 8.81886C6.48542 8.91782 6.74144 8.96875 6.99998 8.96875C7.35582 8.9672 7.70443 8.86821 8.00798 8.68253L9.17232 9.84686C8.54994 10.327 7.78603 10.5874 6.99998 10.5873Z" fill="#6E6E6E"/>
<path fill-rule="evenodd" clip-rule="evenodd" d="M9.57172 3.3367C8.77499 2.92888 7.89496 2.71024 7 2.69775C3.63067 2.69775 0.875 6.05192 0.875 7.14003C0.875 8.3067 3.77533 11.3011 6.97511 11.3011C10.2029 11.3011 13.125 8.30437 13.125 7.14003C13.125 6.22225 11.4862 4.2852 9.57172 3.3367ZM7 10.5875C6.29046 10.5875 5.59685 10.3771 5.00689 9.98293C4.41693 9.58873 3.95711 9.02844 3.68558 8.37291C3.41405 7.71738 3.34301 6.99605 3.48143 6.30015C3.61986 5.60424 3.96153 4.96501 4.46325 4.46329C4.96498 3.96157 5.60421 3.61989 6.30011 3.48146C6.99602 3.34304 7.71735 3.41408 8.37288 3.68561C9.02841 3.95714 9.5887 4.41696 9.9829 5.00692C10.3771 5.59688 10.5875 6.29049 10.5875 7.00003C10.5875 7.47115 10.4947 7.93765 10.3144 8.37291C10.1341 8.80816 9.86988 9.20365 9.53675 9.53678C9.20362 9.86991 8.80813 10.1342 8.37288 10.3144C7.93762 10.4947 7.47112 10.5875 7 10.5875Z" fill="#6E6E6E"/>
<path fill-rule="evenodd" clip-rule="evenodd" d="M8.03712 7.03208C7.76211 7.03208 7.49836 6.92286 7.30387 6.72844C7.10937 6.53402 7.00005 6.27031 6.99995 5.99531C7.00192 5.81495 7.05152 5.63832 7.14371 5.4833C7.2359 5.32828 7.36742 5.20037 7.52495 5.11253C7.35456 5.06125 7.17787 5.03389 6.99995 5.03125C6.61051 5.03125 6.22982 5.14674 5.90602 5.3631C5.58222 5.57947 5.32986 5.887 5.18085 6.2468C5.03183 6.6066 4.99286 7.00251 5.06887 7.38446C5.14487 7.76641 5.33243 8.11724 5.60783 8.39259C5.88324 8.66793 6.2341 8.85543 6.61607 8.93135C6.99803 9.00728 7.39393 8.96823 7.7537 8.81915C8.11347 8.67007 8.42095 8.41764 8.63726 8.0938C8.85356 7.76996 8.96897 7.38924 8.9689 6.99981C8.9664 6.84197 8.94353 6.68511 8.90084 6.53314C8.81157 6.68324 8.68529 6.80793 8.53407 6.89529C8.38285 6.98264 8.21174 7.02974 8.03712 7.03208Z" fill="#6E6E6E"/>
</g>
<defs>
<clipPath id="clip0_31_60">
<rect width="14" height="14" fill="white"/>
</clipPath>
</defs>
</svg>
