<svg width="14" height="14" viewBox="0 0 14 14" fill="none" xmlns="http://www.w3.org/2000/svg">
<path fill-rule="evenodd" clip-rule="evenodd" d="M9.57172 3.3367C8.77499 2.92888 7.89496 2.71024 7 2.69775C3.63067 2.69775 0.875 6.05192 0.875 7.14003C0.875 8.3067 3.77533 11.3011 6.97511 11.3011C10.2029 11.3011 13.125 8.30437 13.125 7.14003C13.125 6.22225 11.4862 4.2852 9.57172 3.3367ZM7 10.5875C6.29046 10.5875 5.59685 10.3771 5.00689 9.98293C4.41693 9.58873 3.95711 9.02844 3.68558 8.37291C3.41405 7.71738 3.34301 6.99605 3.48143 6.30015C3.61986 5.60424 3.96153 4.96501 4.46325 4.46329C4.96498 3.96157 5.60421 3.61989 6.30011 3.48146C6.99602 3.34304 7.71735 3.41408 8.37288 3.68561C9.02841 3.95714 9.5887 4.41696 9.9829 5.00692C10.3771 5.59688 10.5875 6.29049 10.5875 7.00003C10.5875 7.47115 10.4947 7.93765 10.3144 8.37291C10.1341 8.80816 9.86988 9.20365 9.53675 9.53678C9.20362 9.86991 8.80813 10.1342 8.37288 10.3144C7.93762 10.4947 7.47112 10.5875 7 10.5875Z" fill="#6E6E6E"/>
<path fill-rule="evenodd" clip-rule="evenodd" d="M8.03712 7.03208C7.76211 7.03208 7.49836 6.92286 7.30387 6.72844C7.10937 6.53402 7.00005 6.27031 6.99995 5.99531C7.00192 5.81495 7.05152 5.63832 7.14371 5.4833C7.2359 5.32828 7.36742 5.20037 7.52495 5.11253C7.35456 5.06125 7.17787 5.03389 6.99995 5.03125C6.61051 5.03125 6.22982 5.14674 5.90602 5.3631C5.58222 5.57947 5.32986 5.887 5.18085 6.2468C5.03183 6.6066 4.99286 7.00251 5.06887 7.38446C5.14487 7.76641 5.33243 8.11724 5.60783 8.39259C5.88324 8.66793 6.2341 8.85543 6.61607 8.93135C6.99803 9.00728 7.39393 8.96823 7.7537 8.81915C8.11347 8.67007 8.42095 8.41764 8.63726 8.0938C8.85356 7.76996 8.96897 7.38924 8.9689 6.99981C8.9664 6.84197 8.94353 6.68511 8.90084 6.53314C8.81157 6.68324 8.68529 6.80793 8.53407 6.89529C8.38285 6.98264 8.21174 7.02974 8.03712 7.03208Z" fill="#6E6E6E"/>
</svg>
